<svg xmlns="http://www.w3.org/2000/svg" xmlns:xlink="http://www.w3.org/1999/xlink" version="1.1" id="Your_Icon" x="0px" y="0px" width="100px" height="100px" viewBox="0 0 100 100" enable-background="new 0 0 100 100" xml:space="preserve">
<g>
	<path d="M39.5,83.873c0-0.928,0.748-1.623,1.633-1.623h4.027c0.877,0,1.59,0.695,1.59,1.623v4.24c0,0.926-0.713,1.637-1.59,1.637   h-4.027c-0.885,0-1.633-0.711-1.633-1.637V83.873z"/>
	<path fill="#000000" d="M67,46.5h2.27l7.668,7.695c0.718,0.717,1.677,1.111,2.652,1.111c0.483,0,0.926-0.086,1.39-0.278   c1.401-0.581,2.271-1.94,2.271-3.458v-5.881c1.25-0.495,2.128-1.19,2.998-2.061c1.858-1.858,3.002-4.289,3.002-6.669V25.271   c0-2.38-1.1-4.774-2.958-6.633c-1.858-1.859-4.323-2.889-6.702-2.889H77.5v-5.09c0-2.38-1.068-4.844-2.928-6.703   C72.714,2.1,70.28,1,67.9,1H44.523c-2.38,0-4.775,1.1-6.635,2.958C36.031,5.816,35,8.28,35,10.66V15h-6.791   c-4.951,0-8.959,4.084-8.959,9.173v66.546c0,5.09,4.008,9.281,8.959,9.281h29.859C63.025,100,67,95.809,67,90.719V46.5    M56.212,42.75c-2.922,0-5.962-2.868-5.962-5.79c0-0.169,0-0.353,0-0.541L54.844,32H67.9c2.38,0,4.813-1.094,6.672-2.953   c1.859-1.858,2.928-4.318,2.928-6.697V19.5c1,0,1.667,0,2.09,0c2.922,0,5.91,2.85,5.91,5.771s0,8.766,0,11.688   c0,2.922-3,5.845-6,5.845v8.766l-8.678-8.82C65.709,42.75,57.674,42.75,56.212,42.75z M28.209,19.25H35v3.1   c0,0.713,0.062,1.484,0.24,2.189l-0.016-0.047L30.928,24.5c-1.316,0-2.428,1.108-2.428,2.502v48.975   c0,1.383,1.133,2.523,2.449,2.523H55.34c1.311,0,2.41-1.141,2.41-2.523L57.735,46.5h5.015v44.219c0,2.77-2.041,5.031-4.682,5.031   H28.209c-2.629,0-4.709-2.262-4.709-5.031V24.173C23.5,21.397,25.58,19.25,28.209,19.25z M73.75,22.35c0,2.922-2.928,5.9-5.85,5.9   c-1.461,0-9.496,0-14.61,0l-8.79,8.71v-8.71h0.023c-0.008,0-0.016-0.001-0.023-0.001c-1.139-0.006-2.264-0.464-3.214-1.192   c-0.878-0.673-1.606-1.577-2.054-2.572c-0.307-0.685-0.482-1.412-0.482-2.135c0-2.923,0-8.768,0-11.689s2.852-5.91,5.773-5.91   s20.455,0,23.377,0s5.85,2.988,5.85,5.91S73.75,19.427,73.75,22.35z"/>
</g>
</svg>